<svg preserveAspectRatio="none" width="100%" height="100%" overflow="visible" style="display: block;" viewBox="0 0 27 27" fill="none" xmlns="http://www.w3.org/2000/svg">
<g id="Icon">
<path id="Vector" d="M18 23.625V21.375C18 20.1815 17.5259 19.0369 16.682 18.193C15.8381 17.3491 14.6935 16.875 13.5 16.875H6.75C5.55653 16.875 4.41193 17.3491 3.56802 18.193C2.72411 19.0369 2.25 20.1815 2.25 21.375V23.625" stroke="var(--stroke-0, #00C282)" stroke-width="2.25" stroke-linecap="round" stroke-linejoin="round"/>
<path id="Vector_2" d="M18 3.519C18.965 3.76917 19.8196 4.33267 20.4296 5.12107C21.0397 5.90947 21.3707 6.87813 21.3707 7.875C21.3707 8.87188 21.0397 9.84053 20.4296 10.6289C19.8196 11.4173 18.965 11.9808 18 12.231" stroke="var(--stroke-0, #00C282)" stroke-width="2.25" stroke-linecap="round" stroke-linejoin="round"/>
<path id="Vector_3" d="M24.75 23.625V21.375C24.7493 20.3779 24.4174 19.4094 23.8065 18.6214C23.1957 17.8333 22.3404 17.2705 21.375 17.0212" stroke="var(--stroke-0, #00C282)" stroke-width="2.25" stroke-linecap="round" stroke-linejoin="round"/>
<path id="Vector_4" d="M10.125 12.375C12.6103 12.375 14.625 10.3603 14.625 7.875C14.625 5.38972 12.6103 3.375 10.125 3.375C7.63972 3.375 5.625 5.38972 5.625 7.875C5.625 10.3603 7.63972 12.375 10.125 12.375Z" stroke="var(--stroke-0, #00C282)" stroke-width="2.25" stroke-linecap="round" stroke-linejoin="round"/>
</g>
</svg>
