<svg preserveAspectRatio="none" width="100%" height="100%" overflow="visible" style="display: block;" viewBox="0 0 27 27" fill="none" xmlns="http://www.w3.org/2000/svg">
<g id="Icon">
<path id="Vector" d="M17.4116 14.5013L19.116 24.093C19.1351 24.2059 19.1192 24.322 19.0706 24.4257C19.0219 24.5294 18.9427 24.6158 18.8437 24.6733C18.7446 24.7308 18.6303 24.7566 18.5162 24.7474C18.402 24.7382 18.2933 24.6944 18.2047 24.6217L14.1773 21.5989C13.9828 21.4536 13.7466 21.3751 13.5039 21.3751C13.2612 21.3751 13.0251 21.4536 12.8306 21.5989L8.79637 24.6206C8.70786 24.6931 8.59934 24.7369 8.48531 24.7461C8.37127 24.7553 8.25713 24.7296 8.15812 24.6722C8.05911 24.6149 7.97993 24.5287 7.93116 24.4253C7.88238 24.3218 7.86632 24.2059 7.88512 24.093L9.58837 14.5013" stroke="var(--stroke-0, #00C282)" stroke-width="2.25" stroke-linecap="round" stroke-linejoin="round"/>
<path id="Vector_2" d="M13.5 15.75C17.2279 15.75 20.25 12.7279 20.25 9C20.25 5.27208 17.2279 2.25 13.5 2.25C9.77208 2.25 6.75 5.27208 6.75 9C6.75 12.7279 9.77208 15.75 13.5 15.75Z" stroke="var(--stroke-0, #00C282)" stroke-width="2.25" stroke-linecap="round" stroke-linejoin="round"/>
</g>
</svg>
