<svg preserveAspectRatio="none" width="100%" height="100%" overflow="visible" style="display: block;" viewBox="0 0 27 27" fill="none" xmlns="http://www.w3.org/2000/svg">
<g id="Icon">
<path id="Vector" d="M12.3941 3.16575C12.4423 2.90768 12.5793 2.67459 12.7812 2.50686C12.9832 2.33912 13.2375 2.24731 13.5 2.24731C13.7625 2.24731 14.0168 2.33912 14.2188 2.50686C14.4207 2.67459 14.5577 2.90768 14.6059 3.16575L15.7883 9.4185C15.8722 9.86304 16.0883 10.2719 16.4082 10.5918C16.7281 10.9117 17.137 11.1278 17.5815 11.2117L23.8343 12.3941C24.0923 12.4423 24.3254 12.5793 24.4931 12.7812C24.6609 12.9832 24.7527 13.2375 24.7527 13.5C24.7527 13.7625 24.6609 14.0168 24.4931 14.2188C24.3254 14.4207 24.0923 14.5577 23.8343 14.6059L17.5815 15.7883C17.137 15.8722 16.7281 16.0883 16.4082 16.4082C16.0883 16.7281 15.8722 17.137 15.7883 17.5815L14.6059 23.8343C14.5577 24.0923 14.4207 24.3254 14.2188 24.4931C14.0168 24.6609 13.7625 24.7527 13.5 24.7527C13.2375 24.7527 12.9832 24.6609 12.7812 24.4931C12.5793 24.3254 12.4423 24.0923 12.3941 23.8343L11.2117 17.5815C11.1278 17.137 10.9117 16.7281 10.5918 16.4082C10.2719 16.0883 9.86304 15.8722 9.4185 15.7883L3.16575 14.6059C2.90768 14.5577 2.67459 14.4207 2.50686 14.2188C2.33912 14.0168 2.24731 13.7625 2.24731 13.5C2.24731 13.2375 2.33912 12.9832 2.50686 12.7812C2.67459 12.5793 2.90768 12.4423 3.16575 12.3941L9.4185 11.2117C9.86304 11.1278 10.2719 10.9117 10.5918 10.5918C10.9117 10.2719 11.1278 9.86304 11.2117 9.4185L12.3941 3.16575Z" stroke="var(--stroke-0, #00C282)" stroke-width="2.25" stroke-linecap="round" stroke-linejoin="round"/>
<path id="Vector_2" d="M22.5 2.25V6.75" stroke="var(--stroke-0, #00C282)" stroke-width="2.25" stroke-linecap="round" stroke-linejoin="round"/>
<path id="Vector_3" d="M24.75 4.5H20.25" stroke="var(--stroke-0, #00C282)" stroke-width="2.25" stroke-linecap="round" stroke-linejoin="round"/>
<path id="Vector_4" d="M4.5 24.75C5.74264 24.75 6.75 23.7426 6.75 22.5C6.75 21.2574 5.74264 20.25 4.5 20.25C3.25736 20.25 2.25 21.2574 2.25 22.5C2.25 23.7426 3.25736 24.75 4.5 24.75Z" stroke="var(--stroke-0, #00C282)" stroke-width="2.25" stroke-linecap="round" stroke-linejoin="round"/>
</g>
</svg>
