<svg preserveAspectRatio="none" width="100%" height="100%" overflow="visible" style="display: block;" viewBox="0 0 22.5 22.5" fill="none" xmlns="http://www.w3.org/2000/svg">
<g id="Icon">
<path id="Vector" d="M15 7.5C16.4918 7.5 17.9226 8.09263 18.9775 9.14752C20.0324 10.2024 20.625 11.6332 20.625 13.125V19.6875H16.875V13.125C16.875 12.6277 16.6775 12.1508 16.3258 11.7992C15.9742 11.4475 15.4973 11.25 15 11.25C14.5027 11.25 14.0258 11.4475 13.6742 11.7992C13.3225 12.1508 13.125 12.6277 13.125 13.125V19.6875H9.375V13.125C9.375 11.6332 9.96763 10.2024 11.0225 9.14752C12.0774 8.09263 13.5082 7.5 15 7.5Z" stroke="var(--stroke-0, #4A5565)" stroke-width="1.875" stroke-linecap="round" stroke-linejoin="round"/>
<path id="Vector_2" d="M5.625 8.4375H1.875V19.6875H5.625V8.4375Z" stroke="var(--stroke-0, #4A5565)" stroke-width="1.875" stroke-linecap="round" stroke-linejoin="round"/>
<path id="Vector_3" d="M3.75 5.625C4.78553 5.625 5.625 4.78553 5.625 3.75C5.625 2.71447 4.78553 1.875 3.75 1.875C2.71447 1.875 1.875 2.71447 1.875 3.75C1.875 4.78553 2.71447 5.625 3.75 5.625Z" stroke="var(--stroke-0, #4A5565)" stroke-width="1.875" stroke-linecap="round" stroke-linejoin="round"/>
</g>
</svg>
